PathFileType	4	(X/Y/Z)	pose_F01_0-93.trc
DataRate	CameraRate	NumFrames	NumMarkers	Units	OrigDataRate	OrigDataStartFrame	OrigNumFrames
30	30	12	21	m	30	0	93
Frame#	Time	CHip			RHip			RKnee			RAnkle			RBigToe			RSmallToe			RHeel			LHip			LKnee			LAnkle			LBigToe			LSmallToe			LHeel			Neck			Nose			RShoulder			RElbow			RWrist			LShoulder			LElbow			LWrist			
		X1	Y1	Z1	X2	Y2	Z2	X3	Y3	Z3	X4	Y4	Z4	X5	Y5	Z5	X6	Y6	Z6	X7	Y7	Z7	X8	Y8	Z8	X9	Y9	Z9	X10	Y10	Z10	X11	Y11	Z11	X12	Y12	Z12	X13	Y13	Z13	X14	Y14	Z14	X15	Y15	Z15	X16	Y16	Z16	X17	Y17	Z17	X18	Y18	Z18	X19	Y19	Z19	X20	Y20	Z20	X21	Y21	Z21	
0	0.0	-0.2807110038487174	1.815905433689571	-0.5632415039105003	-0.2887645674308921	1.8644328338986638	-0.5107705664206307																-0.26272648649288094	1.8582600703681809	-0.624585514470864																-0.2765739733987005	1.9916275831404744	-0.6010839767007717	-0.26470546288104657	2.063994720950621	-0.5795725374559234	-0.29741657787494524	2.001007677306373	-0.5137217997412467	-0.30383516930163507	1.9196147819899898	-0.47134901844691757	-0.28554647236727	1.8663409796452897	-0.40011322574694225	-0.26374326208318516	1.9817132348311326	-0.7229174128022097	-1.3145857692654925	1.7762388128044575	0.3467679483975164	-0.39073809836720996	1.6797070484044423	-0.8512142271023139
1	0.03333333333333333	-0.2804837072017419	1.817222879530904	-0.5633925185108968	-0.2890999461020291	1.8614792594460057	-0.5103446217298333																-0.26286335691450075	1.8562463568313834	-0.6243576404495167																-0.2765543269494582	1.9916107911158178	-0.601033991019928	-0.26463176609413774	2.0628213599054304	-0.5791597877652908	-0.2974980932212287	1.9997818942849592	-0.5137113158980968	-0.30401285597455385	1.918320700909945	-0.47116614333180745	-0.2869309132116943	1.8633096178965527	-0.4029150178181049	-0.2627498775779434	1.9829720716276076	-0.7199535231787794	-1.308142662487661	1.7803654939838303	0.341736425561716	-0.37645969307403326	1.6948231524791224	-0.8341146812322267
2	0.06666666666666667	-0.28025641055476647	1.818540325372237	-0.5635435331112932	-0.2894353247731661	1.8585256849933476	-0.5099186770390359																-0.26300022733612055	1.854232643294586	-0.6241297664281694																-0.2765346805002159	1.9915939990911613	-0.6009840053390844	-0.2645580693072289	2.0616479988602396	-0.5787470380746581	-0.2975796085675122	1.9985561112635453	-0.513700832054947	-0.30419054264747264	1.9170266198299002	-0.47098326821669734	-0.2883153540561186	1.8602782561478157	-0.40571680988926756	-0.2617564930727016	1.9842309084240826	-0.7169896335553491	-1.3016995557098296	1.784492175163203	0.33670490272591563	-0.36218128778085656	1.7099392565538025	-0.8170151353621394
3	0.1	-0.280029113907791	1.81985777121357	-0.5636945477116897	-0.28977070344430306	1.8555721105406895	-0.5094927323482386																-0.26313709775774036	1.8522189297577885	-0.6239018924068221																-0.2765150340509736	1.9915772070665048	-0.6009340196582407	-0.2644843725203201	2.060474637815049	-0.5783342883840255	-0.2976611239137957	1.9973303282421313	-0.5136903482117972	-0.3043682293203914	1.9157325387498554	-0.4708003931015872	-0.2896997949005429	1.8572468943990788	-0.4085186019604302	-0.2607631085674598	1.9854897452205575	-0.7140257439319188	-1.2952564489319982	1.7886188563425758	0.33167337989011525	-0.34790288248767987	1.7250553606284826	-0.7999155894920522
4	0.13333333333333333	-0.27980181726081554	1.821175217054903	-0.5638455623120862	-0.29010608211544003	1.8526185360880314	-0.5090667876574412																-0.26327396817936016	1.850205216220991	-0.6236740183854749																-0.2764953876017313	1.9915604150418482	-0.600884033977397	-0.26441067573341126	2.059301276769858	-0.5779215386933928	-0.29774263926007916	1.9961045452207173	-0.5136798643686473	-0.3045459159933102	1.9144384576698106	-0.4706175179864771	-0.29108423574496717	1.8542155326503418	-0.4113203940315929	-0.25976972406221804	1.9867485820170325	-0.7110618543084885	-1.2888133421541668	1.7927455375219485	0.32664185705431487	-0.33362447719450317	1.7401714647031628	-0.782816043621965
5	0.16666666666666666	-0.2795745206138401	1.822492662896236	-0.5639965769124826	-0.290441460786577	1.8496649616353733	-0.5086408429666438																-0.26341083860097997	1.8481915026841935	-0.6234461443641276																-0.276475741152489	1.9915436230171917	-0.6008340482965533	-0.26433697894650243	2.0581279157246675	-0.5775087890027601	-0.29782415460636263	1.9948787621993034	-0.5136693805254975	-0.304723602666229	1.9131443765897658	-0.470434642871367	-0.29246867658939146	1.8511841709016048	-0.41412218610275553	-0.25877633955697626	1.9880074188135075	-0.7080979646850581	-1.2823702353763353	1.7968722187013213	0.3216103342185145	-0.31934607190132647	1.7552875687778429	-0.7657164977518778
6	0.2	-0.2793472239668646	1.8238101087375689	-0.5641475915128791	-0.290776839457714	1.8467113871827152	-0.5082148982758464																-0.2635477090225998	1.846177789147396	-0.6232182703427803																-0.2764560947032467	1.9915268309925351	-0.6007840626157096	-0.2642632821595936	2.0569545546794767	-0.5770960393121275	-0.2979056699526461	1.9936529791778894	-0.5136588966823477	-0.3049012893391478	1.911850295509721	-0.4702517677562569	-0.29385311743381576	1.8481528091528678	-0.4169239781739182	-0.2577829550517345	1.9892662556099825	-0.7051340750616278	-1.2759271285985039	1.800998899880694	0.3165788113827141	-0.30506766660814977	1.770403672852523	-0.7486169518817906
7	0.23333333333333334	-0.27911992731988916	1.8251275545789019	-0.5642986061132755	-0.29111221812885096	1.8437578127300571	-0.507788953585049																-0.2636845794442196	1.8441640756105986	-0.622990396321433																-0.27643644825400443	1.9915100389678786	-0.6007340769348659	-0.2641895853726848	2.055781193634286	-0.5766832896214948	-0.2979871852989296	1.9924271961564755	-0.5136484128391978	-0.30507897601206657	1.9105562144296762	-0.47006889264114676	-0.29523755827824005	1.8451214474041309	-0.41972577024508084	-0.2567895705464927	1.9905250924064575	-0.7021701854381975	-1.2694840218206724	1.8051255810600668	0.3115472885469137	-0.29078926131497307	1.785519776927203	-0.7315174060117033
8	0.26666666666666666	-0.2788926306729137	1.8264450004202348	-0.564449620713672	-0.29144759679998794	1.840804238277399	-0.5073630088942517																-0.2638214498658394	1.8421503620738011	-0.6227625223000858																-0.27641680180476214	1.991493246943222	-0.6006840912540222	-0.26411588858577595	2.0546078325890953	-0.5762705399308622	-0.29806870064521307	1.9912014131350615	-0.513637928996048	-0.30525666268498536	1.9092621333496314	-0.46988601752603665	-0.29662199912266435	1.842090085655394	-0.4225275623162435	-0.25579618604125093	1.9917839292029325	-0.6992062958147672	-1.263040915042841	1.8092522622394396	0.30651576571111333	-0.27651085602179637	1.8006358810018832	-0.7144178601416161
9	0.3	-0.27866533402593824	1.8277624462615678	-0.5646006353140685	-0.2917829754711249	1.837850663824741	-0.5069370642034543																-0.2639583202874592	1.8401366485370036	-0.6225346482787385																-0.27639715535551984	1.9914764549185655	-0.6006341055731785	-0.2640421917988671	2.0534344715439046	-0.5758577902402295	-0.29815021599149655	1.9899756301136475	-0.5136274451528982	-0.30543434935790414	1.9079680522695865	-0.46970314241092653	-0.29800643996708864	1.839058723906657	-0.42532935438740616	-0.25480280153600915	1.9930427659994074	-0.6962424061913369	-1.2565978082650096	1.8133789434188123	0.30148424287531295	-0.26223245072861967	1.8157519850765633	-0.6973183142715289
10	0.3333333333333333	-0.2784380373789628	1.8290798921029008	-0.5647516499144649	-0.2921183541422619	1.8348970893720828	-0.5065111195126569																-0.264095190709079	1.8381229350002062	-0.6223067742573912																-0.27637750890627755	1.991459662893909	-0.6005841198923348	-0.2639684950119583	2.052261110498714	-0.5754450405495969	-0.29823173133778	1.9887498470922336	-0.5136169613097483	-0.30561203603082293	1.9066739711895417	-0.4695202672958164	-0.29939088081151294	1.83602736215792	-0.4281311464585688	-0.25380941703076737	1.9943016027958824	-0.6932785165679066	-1.250154701487178	1.817505624598185	0.29645272003951256	-0.247954045435443	1.8308680891512434	-0.6802187684014417
11	0.36666666666666664	-0.2782107407319873	1.8303973379442338	-0.5649026645148614	-0.29245373281339887	1.8319435149194248	-0.5060851748218596																-0.2642320611306988	1.8361092214634087	-0.622078900236044																-0.27635786245703525	1.9914428708692524	-0.6005341342114912	-0.26389479822504947	2.051087749453523	-0.5750322908589642	-0.2983132466840635	1.9875240640708196	-0.5136064774665985	-0.3057897227037417	1.905379890109497	-0.4693373921807063	-0.30077532165593723	1.832996000409183	-0.43093293852973147	-0.2528160325255256	1.9955604395923574	-0.6903146269444763	-1.2437115947093467	1.8216323057775579	0.2914211972037122	-0.2336756401422663	1.8459841932259236	-0.6631192225313545
